<svg xmlns="http://www.w3.org/2000/svg" xmlns:xlink="http://www.w3.org/1999/xlink" version="1.1" id="Capa_1" x="0px" y="0px" viewBox="0 0 439.875 439.875" style="width: 200px; height: 200px; transform-origin: 50% 50%; transform: scaleX(1) scaleY(1) rotate(0deg);" xml:space="preserve" preserveAspectRatio="xMidYMid meet">
<g fill="#FFFFFF" style="fill:#FFFFFF;stroke:none" stroke="none">
	<g fill="#FFFFFF" style="fill:#FFFFFF;stroke:none" stroke="none">
		<polygon points="133.875,153 105.188,210.375 76.5,153 66.938,153 57.375,153 57.375,286.875 76.5,286.875 76.5,191.25     95.625,229.5 105.188,229.5 114.75,229.5 133.875,191.25 133.875,286.875 153,286.875 153,153 143.438,153   " fill="#FFFFFF" style="fill:#FFFFFF;stroke:none" stroke="none"/>
		<path d="M229.5,153h-57.375v38.25v95.625h19.125V229.5h38.25c21.037,0,38.25-17.213,38.25-38.25    C267.75,170.212,250.537,153,229.5,153z M229.5,210.375h-38.25v-38.25h38.25c11.475,0,19.125,7.65,19.125,19.125    S240.975,210.375,229.5,210.375z" fill="#FFFFFF" style="fill:#FFFFFF;stroke:none" stroke="none"/>
		<path d="M344.25,153h-19.125c-21.037,0-38.25,17.212-38.25,38.25H306c0-11.475,7.65-19.125,19.125-19.125h19.125    c11.475,0,19.125,7.65,19.125,19.125s-7.65,19.125-19.125,19.125h-19.125V229.5h19.125c11.475,0,19.125,7.65,19.125,19.125    s-7.65,19.125-19.125,19.125h-19.125c-11.475,0-19.125-7.65-19.125-19.125h-19.125c0,21.037,17.213,38.25,38.25,38.25h19.125    c21.037,0,38.25-17.213,38.25-38.25c0-11.475-5.737-21.037-13.388-28.688c7.65-7.65,13.388-17.212,13.388-28.688    C382.5,170.212,365.287,153,344.25,153z" fill="#FFFFFF" style="fill:#FFFFFF;stroke:none" stroke="none"/>
		<path d="M382.5,95.625H57.375C24.862,95.625,0,120.487,0,153v133.875c0,32.513,24.862,57.375,57.375,57.375H382.5    c32.513,0,57.375-24.862,57.375-57.375V153C439.875,120.487,415.013,95.625,382.5,95.625z M420.75,286.875    c0,21.037-17.213,38.25-38.25,38.25H57.375c-21.038,0-38.25-17.213-38.25-38.25V153c0-21.038,17.212-38.25,38.25-38.25H382.5    c21.037,0,38.25,17.212,38.25,38.25V286.875z" fill="#FFFFFF" style="fill:#FFFFFF;stroke:none" stroke="none"/>
	</g>
</g>
<g fill="#FFFFFF" style="fill:#FFFFFF;stroke:none" stroke="none">
</g>
<g fill="#FFFFFF" style="fill:#FFFFFF;stroke:none" stroke="none">
</g>
<g fill="#FFFFFF" style="fill:#FFFFFF;stroke:none" stroke="none">
</g>
<g fill="#FFFFFF" style="fill:#FFFFFF;stroke:none" stroke="none">
</g>
<g fill="#FFFFFF" style="fill:#FFFFFF;stroke:none" stroke="none">
</g>
<g fill="#FFFFFF" style="fill:#FFFFFF;stroke:none" stroke="none">
</g>
<g fill="#FFFFFF" style="fill:#FFFFFF;stroke:none" stroke="none">
</g>
<g fill="#FFFFFF" style="fill:#FFFFFF;stroke:none" stroke="none">
</g>
<g fill="#FFFFFF" style="fill:#FFFFFF;stroke:none" stroke="none">
</g>
<g fill="#FFFFFF" style="fill:#FFFFFF;stroke:none" stroke="none">
</g>
<g fill="#FFFFFF" style="fill:#FFFFFF;stroke:none" stroke="none">
</g>
<g fill="#FFFFFF" style="fill:#FFFFFF;stroke:none" stroke="none">
</g>
<g fill="#FFFFFF" style="fill:#FFFFFF;stroke:none" stroke="none">
</g>
<g fill="#FFFFFF" style="fill:#FFFFFF;stroke:none" stroke="none">
</g>
<g fill="#FFFFFF" style="fill:#FFFFFF;stroke:none" stroke="none">
</g>
</svg>