<svg xmlns="http://www.w3.org/2000/svg" viewBox="0 0 24 24" preserveAspectRatio="xMidYMid meet" style="width: 200px; height: 200px; transform-origin: 50% 50%; transform: scaleX(1) scaleY(1) rotate(0deg);"><defs><style>.cls-1{fill:#fff;opacity:0;}.cls-2{fill:#231f20;}</style></defs><title>volume-off</title><g id="Layer_2" data-name="Layer 2" style="fill:#FFFFFF"><g id="volume-off" style="fill:#FFFFFF"><g id="volume-off-2" data-name="volume-off" style="fill:#FFFFFF"><rect class="cls-1" width="24" height="24" style="fill:#FFFFFF"/><path class="cls-2" d="M16.91,14.08l1.44,1.44a6,6,0,0,0-.07-7.15,1,1,0,1,0-1.56,1.26A4,4,0,0,1,16.91,14.08Z" style="fill:#FFFFFF"/><path class="cls-2" d="M21,12a6.51,6.51,0,0,1-1.78,4.39l1.42,1.42A8.53,8.53,0,0,0,23,12a8.75,8.75,0,0,0-3.36-6.77,1,1,0,1,0-1.28,1.54A6.8,6.8,0,0,1,21,12Z" style="fill:#FFFFFF"/><path class="cls-2" d="M15,12.17V4a1,1,0,0,0-1.57-.83L9,6.2Z" style="fill:#FFFFFF"/><path class="cls-2" d="M4.74,7.57H2a1,1,0,0,0-1,1v6.86a1,1,0,0,0,1,1H7l6.41,4.4A1.06,1.06,0,0,0,14,21a1,1,0,0,0,1-1V17.83Z" style="fill:#FFFFFF"/><path class="cls-2" d="M4.71,3.29A1,1,0,0,0,3.29,4.71l16,16a1,1,0,0,0,1.42,0,1,1,0,0,0,0-1.42Z" style="fill:#FFFFFF"/></g></g></g></svg>