<svg xmlns="http://www.w3.org/2000/svg" xmlns:xlink="http://www.w3.org/1999/xlink" viewBox="0 0 20 16" version="1.1" preserveAspectRatio="xMidYMid meet" style="width: 200px; height: 200px; transform-origin: 50% 50%; transform: scaleX(1) scaleY(1) rotate(0deg);">
    <!-- Generator: Sketch 52.5 (67469) - http://www.bohemiancoding.com/sketch -->
    <title>create_new_folder</title>
    <desc>Created with Sketch.</desc>
    <g id="Icons" stroke="#FFCB00" stroke-width="1" fill="none" fill-rule="evenodd" style="fill:none;stroke:#FFCB00" class="">
        <g id="Rounded" transform="translate(-238.000000, -2284.000000)" fill="none" style="fill:none;stroke:#FFCB00" stroke="#FFCB00" class="">
            <g id="File" transform="translate(100.000000, 2226.000000)" fill="none" style="fill:none;stroke:#FFCB00" stroke="#FFCB00" class="">
                <g id="-Round-/-File-/-create_new_folder" transform="translate(136.000000, 54.000000)" fill="none" style="fill:none;stroke:#FFCB00" stroke="#FFCB00" class="">
                    <g fill="none" style="fill:none;stroke:#FFCB00" stroke="#FFCB00" class="">
                        <polygon id="Path" points="0 0 24 0 24 24 0 24" fill="none" style="fill:none;stroke:#FFCB00" stroke="#FFCB00" class=""/>
                        <path d="M20,6 L12,6 L10.59,4.59 C10.21,4.21 9.7,4 9.17,4 L4,4 C2.89,4 2.01,4.89 2.01,6 L2,18 C2,19.11 2.89,20 4,20 L20,20 C21.1,20 22,19.1 22,18 L22,8 C22,6.9 21.1,6 20,6 Z M18,14 L16,14 L16,16 C16,16.55 15.55,17 15,17 C14.45,17 14,16.55 14,16 L14,14 L12,14 C11.45,14 11,13.55 11,13 C11,12.45 11.45,12 12,12 L14,12 L14,10 C14,9.45 14.45,9 15,9 C15.55,9 16,9.45 16,10 L16,12 L18,12 C18.55,12 19,12.45 19,13 C19,13.55 18.55,14 18,14 Z" id="🔹-Icon-Color" fill="#FFCB00" style="fill:#FFCB00;stroke:#FFCB00" stroke="#FFCB00" class=""/>
                    </g>
                </g>
            </g>
        </g>
    </g>
</svg>