<?xml version="1.0" encoding="UTF-8"?>
<svg version="1.1" xmlns="http://www.w3.org/2000/svg" width="128" height="128">
<path d="M0 0 C0.78012451 -0.0066568 1.56024902 -0.0133136 2.36401367 -0.02017212 C4.00795138 -0.03026481 5.65192978 -0.03499019 7.29589844 -0.03466797 C9.80472306 -0.03904892 12.31179781 -0.07542244 14.8203125 -0.11328125 C16.42186902 -0.11914871 18.02343384 -0.12311858 19.625 -0.125 C20.74394653 -0.14655655 20.74394653 -0.14655655 21.88549805 -0.16854858 C25.43520355 -0.13753282 27.62694759 0.22561668 30.69921875 2.05224609 C35.53630676 7.2793858 35.06849266 12.58757741 35.015625 19.3515625 C35.0261761 21.34505861 35.03793298 23.33854863 35.05078125 25.33203125 C35.06107474 28.45684066 35.06253299 31.58079622 35.04248047 34.70556641 C35.02763226 37.7341228 35.05026316 40.76063654 35.078125 43.7890625 C35.05507294 45.17233734 35.05507294 45.17233734 35.03155518 46.58355713 C35.12340353 52.77661934 36.5813442 56.41241936 40.33050537 61.34735107 C44.44588912 66.86950082 44.21188929 71.77039126 44.25 78.4609375 C44.28287109 79.45609375 44.31574219 80.45125 44.34960938 81.4765625 C44.41190499 90.15264311 41.64244711 95.88887776 37.0625 103.0859375 C29.64062119 110.50781631 20.1838664 115.15789419 9.6875 115.5859375 C-0.80885745 115.4115794 -9.7885155 111.69362957 -17.23046875 104.30859375 C-24.1875 96.60565399 -24.1875 96.60565399 -24.1875 91.3359375 C-25.16349655 91.34926117 -25.16349655 91.34926117 -26.15921021 91.362854 C-32.94003502 91.45144584 -39.72069504 91.51172123 -46.50195312 91.55566406 C-49.03164347 91.57576155 -51.56128746 91.60304418 -54.09082031 91.63769531 C-57.72993417 91.68629306 -61.368433 91.70892562 -65.0078125 91.7265625 C-66.13615509 91.74720764 -67.26449768 91.76785278 -68.42703247 91.78912354 C-74.63739998 91.79089255 -78.51223771 91.60349073 -83.1875 87.3359375 C-84.62237168 84.46619413 -84.33864216 81.98578079 -84.36450195 78.77832031 C-84.37107315 78.10491608 -84.37764435 77.43151184 -84.38441467 76.73770142 C-84.4041553 74.50482066 -84.41581318 72.27200726 -84.42578125 70.0390625 C-84.42985678 69.27610619 -84.4339323 68.51314987 -84.43813133 67.72707367 C-84.45899744 63.68719249 -84.47329559 59.6473453 -84.48266602 55.60742188 C-84.493719 51.43994016 -84.52810391 47.27299408 -84.56783772 43.10570145 C-84.59402166 39.89714587 -84.6023595 36.68871741 -84.60594749 33.48006439 C-84.61081056 31.94430686 -84.62241669 30.40855489 -84.64098549 28.87290192 C-84.66541169 26.71855161 -84.66440634 24.56558005 -84.6574707 22.41113281 C-84.66627007 20.57485321 -84.66627007 20.57485321 -84.67524719 18.70147705 C-84.09074878 14.66833744 -82.71405652 12.49505758 -80.1875 9.3359375 C-77.55346349 8.01891925 -75.58931086 8.21129329 -72.63964844 8.20996094 C-71.47794128 8.20615417 -70.31623413 8.20234741 -69.11932373 8.19842529 C-67.85791565 8.19739807 -66.59650757 8.19637085 -65.296875 8.1953125 C-63.32196256 8.18167883 -61.34704981 8.16801538 -59.37215042 8.15260696 C-54.49399893 8.11461648 -49.61610929 8.08331765 -44.73779297 8.08544922 C-42.00414535 8.08608495 -39.27117177 8.0736052 -36.53765869 8.04644775 C-33.96237809 8.02111949 -31.38682658 8.01470868 -28.8114624 8.02923584 C-21.70599862 8.12931529 -21.70599862 8.12931529 -15.66113281 4.91894531 C-14.84483398 4.06655273 -14.02853516 3.21416016 -13.1875 2.3359375 C-8.93948519 0.01445007 -4.74004745 0.01414233 0 0 Z " fill="#F7CD24" transform="translate(84.1875,6.6640625)"/>
<path d="M0 0 C2.2100708 1.30111963 3.58015143 2.57412443 5.35546875 4.38671875 C6.1753125 4.83917969 6.99515625 5.29164062 7.83984375 5.7578125 C10.78396144 7.66417442 11.90352161 9.40810795 13.60546875 12.44921875 C14.105625 13.32707031 14.60578125 14.20492187 15.12109375 15.109375 C17.8962242 20.22931504 17.65127713 24.60573037 17.73046875 30.38671875 C17.78654297 31.89298828 17.78654297 31.89298828 17.84375 33.4296875 C17.94559681 42.17719727 15.22266293 47.8811279 10.60546875 55.13671875 C3.18358994 62.55859756 -6.27316485 67.20867544 -16.76953125 67.63671875 C-27.34449471 67.46105491 -35.94265515 63.64486908 -43.65234375 56.53515625 C-51.23272077 48.57417452 -53.12150236 38.37935123 -52.9765625 27.640625 C-51.92899915 17.37450421 -46.34974334 9.01198773 -38.64453125 2.38671875 C-26.42007606 -5.29115904 -13.06672007 -6.0016797 0 0 Z " fill="#51DA47" transform="translate(110.64453125,54.61328125)"/>
<path d="M0 0 C1.16105255 0.00007553 2.3221051 0.00015106 3.51834106 0.00022888 C4.77669769 0.00539017 6.03505432 0.01055145 7.33154297 0.01586914 C8.61608368 0.01728409 9.90062439 0.01869904 11.22409058 0.02015686 C14.64029889 0.02397628 18.05646473 0.03380166 21.47265625 0.04486084 C24.95816473 0.05508732 28.44368006 0.05965713 31.92919922 0.06469727 C38.76906042 0.07542444 45.60889341 0.09249397 52.44873047 0.11352539 C49.04774705 8.8461016 44.69572736 16.35564257 36.44873047 21.11352539 C32.64005941 22.38308241 29.05704884 22.24901572 25.08935547 22.25415039 C23.39923788 22.272483 21.70913334 22.29205373 20.01904297 22.31274414 C17.36159269 22.34166143 14.70498092 22.36352424 12.04736328 22.36401367 C9.4772755 22.36736388 6.9091077 22.4020059 4.33935547 22.44165039 C3.55369202 22.43458069 2.76802856 22.42751099 1.95855713 22.42022705 C-4.01324443 22.55083267 -6.97551125 24.293564 -11.55126953 28.11352539 C-11.66816579 24.73882035 -11.73874887 21.36464109 -11.80126953 17.98852539 C-11.83478516 17.03719727 -11.86830078 16.08586914 -11.90283203 15.10571289 C-11.98623867 9.10043515 -11.58546738 5.67067481 -7.55126953 1.11352539 C-4.91411857 -0.20505009 -2.95294313 -0.00639165 0 0 Z " fill="#EFA023" transform="translate(11.55126953125,14.886474609375)"/>
<path d="M0 0 C0.9075 0.00257812 1.815 0.00515625 2.75 0.0078125 C4.11125 0.00394531 4.11125 0.00394531 5.5 0 C7.75 0.1328125 7.75 0.1328125 8.75 1.1328125 C8.82325168 3.99548817 8.84238205 6.8335315 8.8125 9.6953125 C8.80798828 10.50162109 8.80347656 11.30792969 8.79882812 12.13867188 C8.78700518 14.13675006 8.76906914 16.13479033 8.75 18.1328125 C9.96558594 18.12121094 11.18117187 18.10960938 12.43359375 18.09765625 C14.01822764 18.08827972 15.60286318 18.07917937 17.1875 18.0703125 C17.98994141 18.06193359 18.79238281 18.05355469 19.61914062 18.04492188 C21.66295221 18.0362982 23.70683902 18.080531 25.75 18.1328125 C26.75 19.1328125 26.75 19.1328125 26.8828125 21.12890625 C26.88023438 21.93457031 26.87765625 22.74023438 26.875 23.5703125 C26.87886719 24.77494141 26.87886719 24.77494141 26.8828125 26.00390625 C26.75 28.1328125 26.75 28.1328125 25.75 30.1328125 C20.14 30.1328125 14.53 30.1328125 8.75 30.1328125 C8.82903295 35.30856052 8.82903295 35.30856052 8.93017578 40.48388672 C8.94477217 42.36776299 8.84943482 44.25150562 8.75 46.1328125 C6.75 48.1328125 6.75 48.1328125 4.875 48.3984375 C4.17375 48.39328125 3.4725 48.388125 2.75 48.3828125 C2.04875 48.38796875 1.3475 48.393125 0.625 48.3984375 C-1.25 48.1328125 -1.25 48.1328125 -3.25 46.1328125 C-3.39507695 43.38795657 -3.43652423 40.74800707 -3.375 38.0078125 C-3.36597656 37.25371094 -3.35695313 36.49960938 -3.34765625 35.72265625 C-3.3240687 33.85923996 -3.28819719 31.99598657 -3.25 30.1328125 C-4.46558594 30.14441406 -5.68117188 30.15601562 -6.93359375 30.16796875 C-8.51822764 30.17734528 -10.10286318 30.18644563 -11.6875 30.1953125 C-12.48994141 30.20369141 -13.29238281 30.21207031 -14.11914062 30.22070312 C-16.16295221 30.2293268 -18.20683902 30.185094 -20.25 30.1328125 C-21.25 29.1328125 -21.25 29.1328125 -21.3828125 26.8828125 C-21.38023438 25.9753125 -21.37765625 25.0678125 -21.375 24.1328125 C-21.37757812 23.2253125 -21.38015625 22.3178125 -21.3828125 21.3828125 C-21.25 19.1328125 -21.25 19.1328125 -20.25 18.1328125 C-17.38732433 18.05956082 -14.549281 18.04043045 -11.6875 18.0703125 C-10.88119141 18.07482422 -10.07488281 18.07933594 -9.24414062 18.08398438 C-7.24606244 18.09580732 -5.24802217 18.11374336 -3.25 18.1328125 C-3.26160156 16.91722656 -3.27320312 15.70164062 -3.28515625 14.44921875 C-3.29453278 12.86458486 -3.30363313 11.27994932 -3.3125 9.6953125 C-3.32087891 8.89287109 -3.32925781 8.09042969 -3.33789062 7.26367188 C-3.3465143 5.21986029 -3.3022815 3.17597348 -3.25 1.1328125 C-2.25 0.1328125 -2.25 0.1328125 0 0 Z " fill="#FCFDFC" transform="translate(90.25,61.8671875)"/>
<path d="M0 0 C2 3 2 3 2.4375 5.125 C2.7159375 6.053125 2.7159375 6.053125 3 7 C5.96892711 7.98964237 8.01149908 8.15273727 11.11401367 8.20532227 C12.67529243 8.2352401 12.67529243 8.2352401 14.26811218 8.26576233 C15.39006485 8.28247482 16.51201752 8.29918732 17.66796875 8.31640625 C18.81791824 8.33718735 19.96786774 8.35796844 21.15266418 8.37937927 C24.83088125 8.44483342 28.50917048 8.50374074 32.1875 8.5625 C34.67904396 8.60568913 37.17058059 8.64930355 39.66210938 8.69335938 C45.77466301 8.80051061 51.88728864 8.90228483 58 9 C58.33 8.01 58.66 7.02 59 6 C59.495 9.465 59.495 9.465 60 13 C52.56196775 13.10153917 45.1241147 13.17152433 37.68554688 13.21972656 C35.15585653 13.23982405 32.62621254 13.26710668 30.09667969 13.30175781 C26.45756583 13.35035556 22.819067 13.37298812 19.1796875 13.390625 C18.05134491 13.41127014 16.92300232 13.43191528 15.76046753 13.45318604 C9.55010002 13.45495505 5.67526229 13.26755323 1 9 C-0.4783226 6.04335481 -0.06032783 3.25770263 0 0 Z " fill="#CEAB19" transform="translate(0,85)"/>
<path d="M0 0 C0.97894309 2.60050528 1.0914976 3.74305467 0.14453125 6.40234375 C-5.57966276 17.29677751 -12.32541253 23.73428535 -24 28 C-33.13141139 30.6433033 -43.08704637 29.02238553 -51.453125 24.74609375 C-57.92033545 20.70958655 -64.03391159 15.17173615 -67 8 C-66.625 5.75 -66.625 5.75 -66 4 C-65.67 5.65 -65.34 7.3 -65 9 C-64.34 9 -63.68 9 -63 9 C-62.00110248 10.34582002 -61.05149253 11.72834708 -60.125 13.125 C-55.33827331 19.51402047 -47.88113857 23.5823097 -40 25 C-31.28026745 25.7207367 -24.86660345 24.67013326 -17 21 C-15.845 20.67 -14.69 20.34 -13.5 20 C-10.90654825 19.24924246 -10.90654825 19.24924246 -9.875 17.1875 C-9.58625 16.465625 -9.2975 15.74375 -9 15 C-7.68133728 13.321702 -6.34919532 11.65385233 -5 10 C-4.67 9.34 -4.34 8.68 -4 8 C-3.34 8 -2.68 8 -2 8 C-1.855625 7.236875 -1.71125 6.47375 -1.5625 5.6875 C-1 3 -1 3 0 0 Z " fill="#37B32F" transform="translate(127,93)"/>
<path d="M0 0 C0.99 0 1.98 0 3 0 C1.88333826 3.34998521 1.25305075 3.79340222 -1.5625 5.6875 C-2.20316406 6.12449219 -2.84382813 6.56148438 -3.50390625 7.01171875 C-3.99761719 7.33785156 -4.49132812 7.66398437 -5 8 C-5.33 7.34 -5.66 6.68 -6 6 C-4.625 4.5 -4.625 4.5 -3 3 C-2.34 3 -1.68 3 -1 3 C-0.67 2.01 -0.34 1.02 0 0 Z " fill="#34AF2D" transform="translate(117,109)"/>
</svg>
