<svg xmlns="http://www.w3.org/2000/svg" xmlns:xlink="http://www.w3.org/1999/xlink" version="1.1" id="Layer_1" x="0px" y="0px" viewBox="0 0 512 512" style="width: 200px; height: 200px; transform-origin: 50% 50%; transform: scaleX(1) scaleY(1) rotate(0deg);" xml:space="preserve" preserveAspectRatio="xMidYMid meet">
<g fill="#FFFFFF" style="fill:#FFFFFF;stroke:none" stroke="none">
	<g fill="#FFFFFF" style="fill:#FFFFFF;stroke:none" stroke="none">
		<path d="M491.318,235.318H20.682C9.26,235.318,0,244.578,0,256c0,11.423,9.26,20.682,20.682,20.682h470.636    c11.423,0,20.682-9.259,20.682-20.682C512,244.578,502.741,235.318,491.318,235.318z" fill="#FFFFFF" style="fill:#FFFFFF;stroke:none" stroke="none"/>
	</g>
</g>
<g fill="#FFFFFF" style="fill:#FFFFFF;stroke:none" stroke="none">
	<g fill="#FFFFFF" style="fill:#FFFFFF;stroke:none" stroke="none">
		<path d="M505.942,241.375L329.454,64.887c-8.077-8.076-21.172-8.076-29.249,0c-8.076,8.077-8.076,21.172,0,29.249L462.069,256    L300.205,417.863c-8.076,8.077-8.076,21.172,0,29.249c4.038,4.039,9.332,6.058,14.625,6.058c5.293,0,10.587-2.019,14.625-6.058    l176.488-176.488C514.019,262.547,514.019,249.452,505.942,241.375z" fill="#FFFFFF" style="fill:#FFFFFF;stroke:none" stroke="none"/>
	</g>
</g>
<g fill="#FFFFFF" style="fill:#FFFFFF;stroke:none" stroke="none">
</g>
<g fill="#FFFFFF" style="fill:#FFFFFF;stroke:none" stroke="none">
</g>
<g fill="#FFFFFF" style="fill:#FFFFFF;stroke:none" stroke="none">
</g>
<g fill="#FFFFFF" style="fill:#FFFFFF;stroke:none" stroke="none">
</g>
<g fill="#FFFFFF" style="fill:#FFFFFF;stroke:none" stroke="none">
</g>
<g fill="#FFFFFF" style="fill:#FFFFFF;stroke:none" stroke="none">
</g>
<g fill="#FFFFFF" style="fill:#FFFFFF;stroke:none" stroke="none">
</g>
<g fill="#FFFFFF" style="fill:#FFFFFF;stroke:none" stroke="none">
</g>
<g fill="#FFFFFF" style="fill:#FFFFFF;stroke:none" stroke="none">
</g>
<g fill="#FFFFFF" style="fill:#FFFFFF;stroke:none" stroke="none">
</g>
<g fill="#FFFFFF" style="fill:#FFFFFF;stroke:none" stroke="none">
</g>
<g fill="#FFFFFF" style="fill:#FFFFFF;stroke:none" stroke="none">
</g>
<g fill="#FFFFFF" style="fill:#FFFFFF;stroke:none" stroke="none">
</g>
<g fill="#FFFFFF" style="fill:#FFFFFF;stroke:none" stroke="none">
</g>
<g fill="#FFFFFF" style="fill:#FFFFFF;stroke:none" stroke="none">
</g>
</svg>